<svg width="151" height="40" viewBox="0 0 151 40" fill="none" xmlns="http://www.w3.org/2000/svg">
<g clip-path="url(#clip0_1_139936)">
<path d="M1.65791 28.9472L1.65792 10.6393L10.8718 15.7249V23.9125L18.243 28.0318L25.6141 23.9125V15.7249L34.8281 10.6393V28.9472L18.243 38.1011L1.65791 28.9472Z" fill="#192657"/>
<path fill-rule="evenodd" clip-rule="evenodd" d="M6.26488 13.1822L1.65791 10.6394L18.243 1.48547L34.8281 10.6394L30.2211 13.1822V26.6587L18.243 33.5242L6.26487 26.6587L6.26488 13.1822ZM29.722 13.4577L25.6141 15.7249V15.6741L18.243 11.5548L10.8718 15.6741V15.7249L6.76396 13.4577V26.3771L18.243 32.9565L29.722 26.3771V13.4577Z" fill="url(#paint0_linear_1_139936)"/>
<path d="M43.6586 27.5003V12.1217H46.5775V24.8639H53.6539V27.5003H43.6586Z" fill="#192657"/>
<path d="M59.956 27.8079C58.8651 27.8079 57.8848 27.5883 57.015 27.1488C56.1452 26.7094 55.4597 26.0723 54.9585 25.2375C54.4571 24.4027 54.2065 23.3994 54.2065 22.2277V21.8762C54.2065 20.7045 54.4571 19.7012 54.9585 18.8664C55.4597 18.0316 56.1452 17.3945 57.015 16.9551C57.8848 16.5156 58.8651 16.296 59.956 16.296C61.047 16.296 62.0273 16.5156 62.8971 16.9551C63.767 17.3945 64.4525 18.0316 64.9537 18.8664C65.4549 19.7012 65.7056 20.7045 65.7056 21.8762V22.2277C65.7056 23.3994 65.4549 24.4027 64.9537 25.2375C64.4525 26.0723 63.767 26.7094 62.8971 27.1488C62.0273 27.5883 61.047 27.8079 59.956 27.8079ZM59.956 25.3473C60.8111 25.3473 61.5188 25.0764 62.0789 24.5345C62.6392 23.9779 62.9192 23.187 62.9192 22.1618V21.9421C62.9192 20.9169 62.6392 20.1332 62.0789 19.5914C61.5335 19.0348 60.8258 18.7565 59.956 18.7565C59.101 18.7565 58.3933 19.0348 57.8332 19.5914C57.2729 20.1332 56.9929 20.9169 56.9929 21.9421V22.1618C56.9929 23.187 57.2729 23.9779 57.8332 24.5345C58.3933 25.0764 59.101 25.3473 59.956 25.3473Z" fill="#192657"/>
<path d="M66.7516 22.0959V21.7444C66.7516 20.602 66.9801 19.628 67.4371 18.8224C67.8941 18.0022 68.4986 17.3797 69.2504 16.9551C70.017 16.5156 70.8499 16.296 71.7492 16.296C72.7517 16.296 73.511 16.4717 74.0269 16.8232C74.5429 17.1747 74.9188 17.5409 75.1546 17.9217H75.5528V16.6035H78.2948V29.4337C78.2948 30.1806 78.0736 30.7738 77.6314 31.2132C77.1891 31.6672 76.5994 31.8943 75.8623 31.8943H68.5207V29.4776H74.8893C75.3021 29.4776 75.5085 29.2579 75.5085 28.8185V25.9844H75.1104C74.963 26.2188 74.7566 26.4605 74.4913 26.7094C74.2259 26.9438 73.8721 27.1415 73.4298 27.3027C72.9876 27.4637 72.4273 27.5443 71.7492 27.5443C70.8499 27.5443 70.017 27.3319 69.2504 26.9071C68.4986 26.4678 67.8941 25.8453 67.4371 25.0398C66.9801 24.2196 66.7516 23.2383 66.7516 22.0959ZM72.5453 25.1277C73.4003 25.1277 74.1153 24.8567 74.6903 24.3148C75.2653 23.7729 75.5528 23.0113 75.5528 22.03V21.8103C75.5528 20.8143 75.2653 20.0528 74.6903 19.5255C74.1301 18.9836 73.4151 18.7126 72.5453 18.7126C71.6902 18.7126 70.9752 18.9836 70.4003 19.5255C69.8254 20.0528 69.5379 20.8143 69.5379 21.8103V22.03C69.5379 23.0113 69.8254 23.7729 70.4003 24.3148C70.9752 24.8567 71.6902 25.1277 72.5453 25.1277Z" fill="#192657"/>
<path d="M85.6076 27.8079C84.5167 27.8079 83.5363 27.5883 82.6665 27.1488C81.7967 26.7094 81.1112 26.0723 80.61 25.2375C80.1088 24.4027 79.8582 23.3994 79.8582 22.2277V21.8762C79.8582 20.7045 80.1088 19.7012 80.61 18.8664C81.1112 18.0316 81.7967 17.3945 82.6665 16.9551C83.5363 16.5156 84.5167 16.296 85.6076 16.296C86.6985 16.296 87.6789 16.5156 88.5487 16.9551C89.4185 17.3945 90.104 18.0316 90.6052 18.8664C91.1065 19.7012 91.3571 20.7045 91.3571 21.8762V22.2277C91.3571 23.3994 91.1065 24.4027 90.6052 25.2375C90.104 26.0723 89.4185 26.7094 88.5487 27.1488C87.6789 27.5883 86.6985 27.8079 85.6076 27.8079ZM85.6076 25.3473C86.4626 25.3473 87.1703 25.0764 87.7305 24.5345C88.2907 23.9779 88.5709 23.187 88.5709 22.1618V21.9421C88.5709 20.9169 88.2907 20.1332 87.7305 19.5914C87.185 19.0348 86.4775 18.7565 85.6076 18.7565C84.7526 18.7565 84.045 19.0348 83.4847 19.5914C82.9246 20.1332 82.6444 20.9169 82.6444 21.9421V22.1618C82.6444 23.187 82.9246 23.9779 83.4847 24.5345C84.045 25.0764 84.7526 25.3473 85.6076 25.3473Z" fill="#192657"/>
<path d="M92.9339 27.5003V16.6034H95.7201V27.5003H92.9339ZM94.3269 15.3292C93.8257 15.3292 93.3982 15.1681 93.0444 14.8459C92.7053 14.5236 92.5358 14.0989 92.5358 13.5717C92.5358 13.0444 92.7053 12.6197 93.0444 12.2974C93.3982 11.9753 93.8257 11.8141 94.3269 11.8141C94.843 11.8141 95.2705 11.9753 95.6096 12.2974C95.9487 12.6197 96.1181 13.0444 96.1181 13.5717C96.1181 14.0989 95.9487 14.5236 95.6096 14.8459C95.2705 15.1681 94.843 15.3292 94.3269 15.3292Z" fill="#192657"/>
<path d="M97.8127 31.8943V16.6035H100.555V17.9217H100.953C101.203 17.497 101.594 17.1235 102.125 16.8012C102.656 16.4643 103.415 16.296 104.403 16.296C105.287 16.296 106.105 16.5156 106.857 16.9551C107.609 17.3797 108.213 18.0095 108.67 18.8444C109.127 19.6793 109.356 20.6899 109.356 21.8762V22.2277C109.356 23.414 109.127 24.4246 108.67 25.2594C108.213 26.0944 107.609 26.7314 106.857 27.1708C106.105 27.5956 105.287 27.8079 104.403 27.8079C103.739 27.8079 103.179 27.7273 102.722 27.5663C102.279 27.4198 101.918 27.2294 101.639 26.995C101.373 26.7461 101.159 26.4971 100.997 26.2481H100.599V31.8943H97.8127ZM103.562 25.3913C104.432 25.3913 105.147 25.1203 105.707 24.5784C106.282 24.0219 106.569 23.2163 106.569 22.1618V21.9421C106.569 20.8876 106.282 20.0893 105.707 19.5474C105.132 18.9909 104.417 18.7126 103.562 18.7126C102.707 18.7126 101.992 18.9909 101.417 19.5474C100.842 20.0893 100.555 20.8876 100.555 21.9421V22.1618C100.555 23.2163 100.842 24.0219 101.417 24.5784C101.992 25.1203 102.707 25.3913 103.562 25.3913Z" fill="#192657"/>
<path d="M115.474 27.8079C114.044 27.8079 112.872 27.5004 111.958 26.8852C111.045 26.27 110.492 25.3913 110.299 24.2488L112.865 23.5898C112.968 24.1024 113.138 24.5052 113.373 24.7981C113.624 25.0911 113.927 25.3034 114.281 25.4352C114.648 25.5524 115.047 25.611 115.474 25.611C116.123 25.611 116.602 25.5011 116.912 25.2815C117.221 25.0471 117.376 24.7615 117.376 24.4246C117.376 24.0878 117.229 23.8315 116.934 23.6557C116.64 23.4653 116.168 23.3115 115.518 23.1944L114.9 23.0845C114.133 22.938 113.432 22.7403 112.799 22.4913C112.165 22.2277 111.656 21.8688 111.272 21.4148C110.89 20.9608 110.698 20.3749 110.698 19.6572C110.698 18.5734 111.096 17.7459 111.892 17.1747C112.688 16.5889 113.735 16.296 115.032 16.296C116.256 16.296 117.273 16.567 118.083 17.1088C118.895 17.6507 119.425 18.3611 119.676 19.2399L117.089 20.0307C116.971 19.4742 116.728 19.0787 116.359 18.8444C116.005 18.6101 115.563 18.4929 115.032 18.4929C114.501 18.4929 114.096 18.5881 113.816 18.7785C113.536 18.9543 113.396 19.2032 113.396 19.5255C113.396 19.877 113.543 20.1406 113.838 20.3163C114.133 20.4774 114.531 20.602 115.032 20.6899L115.651 20.7997C116.477 20.9461 117.221 21.1439 117.885 21.3928C118.563 21.6272 119.094 21.9714 119.477 22.4254C119.875 22.8648 120.074 23.4653 120.074 24.2269C120.074 25.3694 119.654 26.2554 118.813 26.8852C117.988 27.5004 116.875 27.8079 115.474 27.8079Z" fill="#192657"/>
<path d="M125.7 27.676C124.845 27.676 124.093 27.4856 123.445 27.1049C122.811 26.7094 122.317 26.1675 121.963 25.4791C121.61 24.7908 121.432 23.9998 121.432 23.1064V16.6035H124.219V22.8867C124.219 23.7069 124.418 24.3221 124.816 24.7321C125.228 25.1423 125.81 25.3473 126.563 25.3473C127.417 25.3473 128.081 25.069 128.553 24.5125C129.025 23.9413 129.26 23.1504 129.26 22.1398V16.6035H132.047V27.5003H129.304V26.0723H128.907C128.729 26.4385 128.398 26.7973 127.911 27.1488C127.425 27.5003 126.687 27.676 125.7 27.676Z" fill="#192657"/>
<path d="M134.152 27.5004V16.6035H136.894V17.7899H137.292C137.483 17.4237 137.801 17.1088 138.243 16.8452C138.685 16.5669 139.268 16.4278 139.99 16.4278C140.771 16.4278 141.398 16.5816 141.87 16.8891C142.341 17.182 142.702 17.5701 142.954 18.0535H143.351C143.602 17.5849 143.956 17.1967 144.413 16.8891C144.87 16.5816 145.518 16.4278 146.359 16.4278C147.037 16.4278 147.649 16.5743 148.194 16.8672C148.754 17.1454 149.197 17.5775 149.521 18.1634C149.86 18.7345 150.029 19.4595 150.029 20.3384V27.5004H147.243V20.5361C147.243 19.9355 147.089 19.4888 146.779 19.1959C146.469 18.8884 146.034 18.7345 145.474 18.7345C144.841 18.7345 144.346 18.9396 143.992 19.3497C143.654 19.7451 143.484 20.3163 143.484 21.0634V27.5004H140.698V20.5361C140.698 19.9355 140.543 19.4888 140.234 19.1959C139.924 18.8884 139.489 18.7345 138.928 18.7345C138.295 18.7345 137.801 18.9396 137.447 19.3497C137.108 19.7451 136.938 20.3163 136.938 21.0634V27.5004H134.152Z" fill="#192657"/>
</g>
<defs>
<linearGradient id="paint0_linear_1_139936" x1="6.26487" y1="8.60518" x2="31.1425" y2="8.60519" gradientUnits="userSpaceOnUse">
<stop stop-color="#64C2DB"/>
<stop offset="0.307292" stop-color="#7476ED"/>
<stop offset="0.604167" stop-color="#C994DF"/>
<stop offset="1" stop-color="#E56F8C"/>
</linearGradient>
<clipPath id="clip0_1_139936">
<rect width="150.068" height="40" fill="white" transform="translate(0.795929)"/>
</clipPath>
</defs>
</svg>
