<svg width="151" height="40" viewBox="0 0 151 40" fill="none" xmlns="http://www.w3.org/2000/svg">
<g clip-path="url(#clip0_1_139989)">
<path d="M43.8361 27.8587H54.5763V24.6448H47.6534V12.5389H43.8361V27.8587Z" fill="#2F234F"/>
<path d="M60.9396 25.716C59.4083 25.716 58.6104 24.3876 58.6104 22.395C58.6104 20.4023 59.4083 19.0525 60.9396 19.0525C62.4708 19.0525 63.2903 20.4023 63.2903 22.395C63.2903 24.3876 62.4708 25.716 60.9396 25.716ZM60.9611 28.2015C64.5196 28.2015 66.8488 25.6946 66.8488 22.395C66.8488 19.0953 64.5196 16.5884 60.9611 16.5884C57.4242 16.5884 55.0519 19.0953 55.0519 22.395C55.0519 25.6946 57.4242 28.2015 60.9611 28.2015Z" fill="#2F234F"/>
<path d="M73.0083 31.6512C74.6474 31.6512 76.0923 31.287 77.0628 30.4299C77.9471 29.6371 78.5294 28.4373 78.5294 26.7875V16.8885H75.165V18.067H75.1218C74.4748 17.1456 73.4828 16.5671 72.0162 16.5671C69.2773 16.5671 67.3794 18.8383 67.3794 22.0523C67.3794 25.4162 69.687 27.2588 72.1672 27.2588C73.5043 27.2588 74.3454 26.7232 74.9924 25.9947H75.0787V27.0874C75.0787 28.4158 74.4533 29.1872 72.9652 29.1872C71.8006 29.1872 71.2183 28.6944 71.0242 28.1159H67.6166C67.9617 30.4085 69.9674 31.6512 73.0083 31.6512ZM72.9867 24.6663C71.6712 24.6663 70.8085 23.5949 70.8085 21.9451C70.8085 20.2739 71.6712 19.2026 72.9867 19.2026C74.4533 19.2026 75.2297 20.4453 75.2297 21.9237C75.2297 23.4664 74.518 24.6663 72.9867 24.6663Z" fill="#2F234F"/>
<path d="M85.447 25.716C83.9158 25.716 83.1178 24.3876 83.1178 22.395C83.1178 20.4023 83.9158 19.0525 85.447 19.0525C86.9783 19.0525 87.7978 20.4023 87.7978 22.395C87.7978 24.3876 86.9783 25.716 85.447 25.716ZM85.4686 28.2015C89.0271 28.2015 91.3566 25.6946 91.3566 22.395C91.3566 19.0953 89.0271 16.5884 85.4686 16.5884C81.9317 16.5884 79.5593 19.0953 79.5593 22.395C79.5593 25.6946 81.9317 28.2015 85.4686 28.2015Z" fill="#2F234F"/>
<path d="M92.3829 27.8587H95.8983V16.8885H92.3829V27.8587ZM92.3829 15.3672H95.8983V12.5389H92.3829V15.3672Z" fill="#2F234F"/>
<path d="M97.4232 31.4798H100.939V26.7232H100.982C101.672 27.6445 102.685 28.2016 104.109 28.2016C106.999 28.2016 108.918 25.9304 108.918 22.3736C108.918 19.074 107.128 16.5671 104.195 16.5671C102.685 16.5671 101.607 17.2314 100.852 18.217H100.788V16.8885H97.4232V31.4798ZM103.203 25.5019C101.693 25.5019 100.831 24.2806 100.831 22.5022C100.831 20.7238 101.607 19.374 103.138 19.374C104.648 19.374 105.36 20.6167 105.36 22.5022C105.36 24.3663 104.54 25.5019 103.203 25.5019Z" fill="#2F234F"/>
<path d="M114.642 28.2016C117.532 28.2016 119.667 26.9589 119.667 24.5591C119.667 21.7523 117.381 21.2595 115.44 20.9381C114.038 20.681 112.788 20.5738 112.788 19.8025C112.788 19.1169 113.456 18.7955 114.319 18.7955C115.289 18.7955 115.958 19.0954 116.087 20.081H119.322C119.15 17.917 117.468 16.5671 114.34 16.5671C111.731 16.5671 109.574 17.767 109.574 20.081C109.574 22.6522 111.623 23.1664 113.542 23.4878C115.009 23.7449 116.346 23.8521 116.346 24.8377C116.346 25.5447 115.678 25.9304 114.621 25.9304C113.456 25.9304 112.723 25.3947 112.593 24.302H109.272C109.38 26.7232 111.407 28.2016 114.642 28.2016Z" fill="#2F234F"/>
<path d="M124.442 28.1802C125.973 28.1802 126.944 27.5802 127.742 26.5089H127.806V27.8588H131.171V16.8885H127.655V23.0165C127.655 24.3235 126.922 25.2234 125.714 25.2234C124.593 25.2234 124.054 24.5591 124.054 23.3593V16.8885H120.56V24.0878C120.56 26.5304 121.897 28.1802 124.442 28.1802Z" fill="#2F234F"/>
<path d="M132.7 27.8588H136.215V21.7094C136.215 20.4024 136.862 19.4811 137.962 19.4811C139.019 19.4811 139.515 20.1667 139.515 21.3452V27.8588H143.03V21.7094C143.03 20.4024 143.656 19.4811 144.777 19.4811C145.834 19.4811 146.33 20.1667 146.33 21.3452V27.8588H149.845V20.7238C149.845 18.2598 148.595 16.5671 146.093 16.5671C144.669 16.5671 143.483 17.1671 142.621 18.4955H142.577C142.017 17.3171 140.917 16.5671 139.472 16.5671C137.876 16.5671 136.819 17.3171 136.129 18.4526H136.064V16.8885H132.7V27.8588Z" fill="#2F234F"/>
<path fill-rule="evenodd" clip-rule="evenodd" d="M7.91275 5.62713C6.62714 6.52021 5.46461 7.57612 4.45542 8.76476C8.57942 8.38438 13.8188 9.00549 19.9017 12.0272C26.3974 15.2538 31.628 15.3629 35.2683 14.6653C34.938 13.6717 34.5221 12.7168 34.0296 11.8091C29.8624 12.2457 24.5202 11.6677 18.2942 8.57512C14.3407 6.61123 10.8557 5.80224 7.91275 5.62713ZM31.5953 8.36681C28.3045 4.71395 23.5222 2.4151 18.1994 2.4151C16.6362 2.4151 15.1195 2.61339 13.6737 2.986C15.6319 3.51684 17.7122 4.29345 19.9017 5.38109C24.46 7.64536 28.3954 8.37441 31.5953 8.36681ZM36.0466 18.1527C31.6488 19.0155 25.5759 18.8383 18.2942 15.2212C11.4867 11.8396 6.06853 11.8822 2.4143 12.689C2.22568 12.7306 2.0415 12.7743 1.86177 12.8198C1.38334 13.8536 1.00145 14.9406 0.727431 16.0694C1.02009 15.9917 1.32252 15.9179 1.63454 15.849C6.06776 14.8702 12.3315 14.9127 19.9017 18.6732C26.7093 22.0548 32.1275 22.0122 35.7818 21.2054C35.9069 21.1779 36.0303 21.1493 36.1516 21.1198C36.1649 20.8383 36.1716 20.5551 36.1716 20.2703C36.1716 19.5538 36.1292 18.8472 36.0466 18.1527ZM35.5648 24.8879C31.2097 25.6443 25.3137 25.354 18.2942 21.8672C11.4867 18.4856 6.06853 18.5282 2.4143 19.335C1.60317 19.514 0.873489 19.7321 0.229806 19.9624C0.228051 20.0648 0.227173 20.1674 0.227173 20.2703C0.227173 30.1314 8.2736 38.1255 18.1994 38.1255C26.5179 38.1255 33.5164 32.5108 35.5648 24.8879Z" fill="#7F57F1"/>
</g>
<defs>
<clipPath id="clip0_1_139989">
<rect width="150.068" height="40" fill="white" transform="translate(0.135986)"/>
</clipPath>
</defs>
</svg>
