<svg width="152" height="40" viewBox="0 0 152 40" fill="none" xmlns="http://www.w3.org/2000/svg">
<path d="M27.9407 0L0 23.1397H18.8661L11.3177 39.9763L39.5053 16.9908H19.8558L27.9407 0Z" fill="#3182CE"/>
<path d="M27.9407 0L15.3199 18.6819L34.0727 18.6819L11.3177 39.9763L39.5053 16.9908L19.8558 16.9908L27.9407 0Z" fill="#2B6CB0"/>
<path d="M27.9407 0L0 23.1397H18.8661L11.3177 39.9763L23.308 21.4486H5.57848L27.9407 0Z" fill="#4299E1"/>
<path d="M106.696 28.3403C105.452 28.3403 104.311 28.2312 103.272 28.013C102.233 27.7804 101.289 27.475 100.44 27.0969C99.6064 26.7042 98.8455 26.2607 98.1577 25.7662L99.8698 22.7996C101.07 23.643 102.277 24.2611 103.491 24.6537C104.706 25.0318 105.869 25.2209 106.981 25.2209C107.464 25.2209 107.969 25.1773 108.496 25.09C109.023 24.9882 109.462 24.821 109.813 24.5883C110.179 24.3411 110.361 24.0066 110.361 23.5849C110.361 23.3376 110.274 23.1341 110.098 22.9741C109.937 22.7996 109.71 22.6614 109.418 22.5596C109.125 22.4578 108.781 22.3778 108.386 22.3197C108.006 22.247 107.589 22.1961 107.135 22.167C106.696 22.1234 106.25 22.0797 105.796 22.0361C104.772 21.9343 103.843 21.7671 103.009 21.5344C102.174 21.3017 101.457 21.0036 100.857 20.64C100.272 20.2619 99.8186 19.8038 99.4966 19.2658C99.1747 18.7277 99.0138 18.1096 99.0138 17.4116C99.0138 16.6263 99.204 15.9283 99.5844 15.3175C99.9795 14.7067 100.528 14.1977 101.231 13.7905C101.933 13.3688 102.738 13.0489 103.645 12.8307C104.567 12.6126 105.555 12.5035 106.608 12.5035C107.706 12.5035 108.693 12.6053 109.571 12.8089C110.464 12.998 111.247 13.2597 111.92 13.5942C112.608 13.9287 113.178 14.2922 113.632 14.6849L111.832 17.2589C111.378 16.9244 110.852 16.6408 110.252 16.4082C109.666 16.1609 109.045 15.9719 108.386 15.841C107.742 15.7101 107.098 15.6447 106.455 15.6447C105.796 15.6447 105.203 15.7029 104.677 15.8192C104.165 15.921 103.755 16.081 103.447 16.2991C103.155 16.5027 103.009 16.7717 103.009 17.1062C103.009 17.4116 103.133 17.6661 103.382 17.8697C103.645 18.0587 103.982 18.2114 104.391 18.3278C104.801 18.4296 105.255 18.5096 105.752 18.5677C106.25 18.6259 106.733 18.6841 107.201 18.7422C108.079 18.8295 108.942 18.9458 109.791 19.0912C110.639 19.2221 111.4 19.4403 112.074 19.7457C112.761 20.0365 113.31 20.4582 113.72 21.0109C114.129 21.5489 114.334 22.2833 114.334 23.214C114.334 24.2902 114.005 25.2136 113.347 25.9844C112.688 26.7406 111.781 27.3223 110.625 27.7295C109.484 28.1367 108.174 28.3403 106.696 28.3403Z" fill="#122743"/>
<path d="M139.044 28.2993V24.9809H143.171V16.1246H139.044L138.971 12.9252H151.051V16.1246H146.902V24.9809H151.051V28.2993H139.044Z" fill="#122743"/>
<path d="M45.1157 25.7932L45.1571 28.2993H60.6313L60.5899 24.9643H50.929L60.3484 15.4317V12.9252H46.6142V16.4352H54.3812L45.1157 25.7932Z" fill="#122743"/>
<path d="M63.7409 28.2993V12.9252H77.5249V16.0155H67.3625V18.8513H76.5372V21.8616H67.3625V25.0952H77.7444V28.2993H63.7409Z" fill="#122743"/>
<path d="M129.559 28.253C127.92 28.253 126.493 27.9331 125.279 27.2932C124.064 26.6533 123.121 25.7735 122.447 24.6537C121.774 23.534 121.438 22.167 121.438 20.7273V12.9252H125.213V20.7273C125.213 26.0002 134.015 26.0002 134.015 20.7273V12.9252H137.658V20.7273C137.658 22.167 137.322 23.534 136.648 24.6537C135.975 25.7735 135.032 26.6533 133.817 27.2932C132.603 27.9331 131.183 28.253 129.559 28.253Z" fill="#122743"/>
<path d="M80.4503 20.7273V12.9252H84.2256V20.7273C84.2256 26.1744 93.0272 26.1744 93.0272 20.7273V12.9252H96.6707V20.7273C96.6707 30.8844 80.4503 30.8163 80.4503 20.7273Z" fill="#122743"/>
</svg>
