<svg width="151" height="40" viewBox="0 0 151 40" fill="none" xmlns="http://www.w3.org/2000/svg">
<g clip-path="url(#clip0_1_139948)">
<path d="M10.9784 28.5088C8.08729 31.3811 3.19077 31.3697 1.82331 27.5415C1.55558 26.792 1.34152 26.0214 1.18408 25.235C0.541249 22.0243 0.871171 18.6964 2.13212 15.672C3.39307 12.6476 5.52842 10.0626 8.26813 8.24395C11.0079 6.42526 14.2289 5.45453 17.5239 5.45453C20.8189 5.45453 24.04 6.42526 26.7796 8.24395C29.5194 10.0626 31.6547 12.6476 32.9157 15.6721C34.1766 18.6964 34.5065 22.0243 33.8637 25.235C33.7063 26.0214 33.4922 26.792 33.2244 27.5415C31.857 31.3697 26.9605 31.3811 24.0693 28.5088L19.6064 24.0749C19.18 23.6513 19.224 22.9527 19.3417 22.3652C19.4131 22.008 19.3764 21.6378 19.2362 21.3014C19.0959 20.9649 18.8584 20.6773 18.5536 20.475C18.2488 20.2727 17.8905 20.1647 17.5239 20.1647C17.1574 20.1647 16.799 20.2727 16.4943 20.475C16.1894 20.6773 15.9519 20.9649 15.8116 21.3014C15.6713 21.6378 15.6346 22.008 15.7062 22.3652C15.8238 22.9527 15.8678 23.6513 15.4414 24.0749L10.9784 28.5088Z" fill="url(#paint0_linear_1_139948)"/>
<path d="M47.7379 24.535H52.216V27.1568H44.3193V13.2138H47.7379V24.535Z" fill="#3A3B7B"/>
<path d="M58.3249 27.3157C57.232 27.3157 56.2457 27.084 55.366 26.6206C54.4998 26.1572 53.8134 25.4951 53.3069 24.6344C52.8138 23.7737 52.5672 22.7674 52.5672 21.6154C52.5672 20.4767 52.8204 19.4769 53.3269 18.6162C53.8334 17.7424 54.5264 17.0737 55.406 16.6102C56.2857 16.1468 57.272 15.9151 58.3649 15.9151C59.4578 15.9151 60.4441 16.1468 61.3237 16.6102C62.2033 17.0737 62.8964 17.7424 63.4028 18.6162C63.9093 19.4769 64.1625 20.4767 64.1625 21.6154C64.1625 22.7541 63.9026 23.7605 63.3829 24.6344C62.8764 25.4951 62.1767 26.1572 61.2837 26.6206C60.4041 27.084 59.4178 27.3157 58.3249 27.3157ZM58.3249 24.3762C58.9779 24.3762 59.5311 24.1379 59.9843 23.6612C60.4507 23.1845 60.684 22.5026 60.684 21.6154C60.684 20.7282 60.4573 20.0464 60.0042 19.5697C59.5644 19.0929 59.0179 18.8546 58.3649 18.8546C57.6985 18.8546 57.1454 19.0929 56.7055 19.5697C56.2657 20.0331 56.0458 20.715 56.0458 21.6154C56.0458 22.5026 56.2591 23.1845 56.6856 23.6612C57.1254 24.1379 57.6719 24.3762 58.3249 24.3762Z" fill="#3A3B7B"/>
<path d="M69.6147 15.9151C70.4011 15.9151 71.0875 16.074 71.674 16.3918C72.2737 16.7095 72.7335 17.1267 73.0534 17.643V16.074H76.472V27.1369C76.472 28.1565 76.2655 29.0768 75.8522 29.8977C75.4524 30.7319 74.8327 31.394 73.9931 31.8839C73.1667 32.3739 72.1338 32.6189 70.8943 32.6189C69.2416 32.6189 67.9021 32.2282 66.8759 31.447C65.8497 30.6789 65.2632 29.6329 65.1166 28.3088H68.4952C68.6018 28.7325 68.8551 29.0636 69.255 29.3019C69.6547 29.5535 70.1479 29.6793 70.7344 29.6793C71.4407 29.6793 72.0004 29.474 72.4137 29.0636C72.8401 28.6663 73.0534 28.0242 73.0534 27.1369V25.5679C72.7202 26.0843 72.2604 26.5081 71.674 26.839C71.0875 27.1568 70.4011 27.3157 69.6147 27.3157C68.6952 27.3157 67.8621 27.084 67.1158 26.6206C66.3694 26.1439 65.7763 25.4752 65.3365 24.6145C64.9101 23.7406 64.6968 22.7343 64.6968 21.5956C64.6968 20.4568 64.9101 19.4571 65.3365 18.5964C65.7763 17.7357 66.3694 17.0737 67.1158 16.6102C67.8621 16.1468 68.6952 15.9151 69.6147 15.9151ZM73.0534 21.6154C73.0534 20.768 72.8135 20.0993 72.3337 19.6094C71.8672 19.1195 71.2941 18.8745 70.6144 18.8745C69.9346 18.8745 69.3549 19.1195 68.8751 19.6094C68.4086 20.0861 68.1753 20.7481 68.1753 21.5956C68.1753 22.443 68.4086 23.1183 68.8751 23.6215C69.3549 24.1113 69.9346 24.3563 70.6144 24.3563C71.2941 24.3563 71.8672 24.1113 72.3337 23.6215C72.8135 23.1315 73.0534 22.4629 73.0534 21.6154Z" fill="#3A3B7B"/>
<path d="M83.4234 27.3157C82.3305 27.3157 81.3442 27.084 80.4647 26.6206C79.5983 26.1572 78.9119 25.4951 78.4054 24.6344C77.9123 23.7737 77.6657 22.7674 77.6657 21.6154C77.6657 20.4767 77.9189 19.4769 78.4255 18.6162C78.9319 17.7424 79.6249 17.0737 80.5045 16.6102C81.3842 16.1468 82.3705 15.9151 83.4634 15.9151C84.5563 15.9151 85.5426 16.1468 86.4222 16.6102C87.3019 17.0737 87.9949 17.7424 88.5013 18.6162C89.0078 19.4769 89.2611 20.4767 89.2611 21.6154C89.2611 22.7541 89.0012 23.7605 88.4814 24.6344C87.9749 25.4951 87.2752 26.1572 86.3822 26.6206C85.5026 27.084 84.5163 27.3157 83.4234 27.3157ZM83.4234 24.3762C84.0765 24.3762 84.6296 24.1379 85.0828 23.6612C85.5493 23.1845 85.7825 22.5026 85.7825 21.6154C85.7825 20.7282 85.5558 20.0464 85.1027 19.5697C84.6629 19.0929 84.1164 18.8546 83.4634 18.8546C82.797 18.8546 82.2439 19.0929 81.804 19.5697C81.3643 20.0331 81.1443 20.715 81.1443 21.6154C81.1443 22.5026 81.3576 23.1845 81.7841 23.6612C82.2239 24.1379 82.7704 24.3762 83.4234 24.3762Z" fill="#3A3B7B"/>
<path d="M92.1941 14.922C91.5943 14.922 91.1012 14.7498 90.7147 14.4056C90.3415 14.0481 90.1549 13.6111 90.1549 13.0947C90.1549 12.5651 90.3415 12.1281 90.7147 11.7838C91.1012 11.4263 91.5943 11.2476 92.1941 11.2476C92.7805 11.2476 93.2604 11.4263 93.6335 11.7838C94.02 12.1281 94.2133 12.5651 94.2133 13.0947C94.2133 13.6111 94.02 14.0481 93.6335 14.4056C93.2604 14.7498 92.7805 14.922 92.1941 14.922ZM93.8934 16.074V27.1568H90.4748V16.074H93.8934Z" fill="#3A3B7B"/>
<path d="M99.1895 17.643C99.5225 17.1267 99.9824 16.7095 100.569 16.3918C101.156 16.074 101.842 15.9151 102.628 15.9151C103.548 15.9151 104.381 16.1468 105.127 16.6102C105.874 17.0737 106.461 17.7357 106.887 18.5964C107.326 19.4571 107.547 20.4568 107.547 21.5956C107.547 22.7343 107.326 23.7406 106.887 24.6145C106.461 25.4752 105.874 26.1439 105.127 26.6206C104.381 27.084 103.548 27.3157 102.628 27.3157C101.855 27.3157 101.169 27.1568 100.569 26.839C99.9824 26.5212 99.5225 26.1108 99.1895 25.6076V32.44H95.7711V16.074H99.1895V17.643ZM104.068 21.5956C104.068 20.7481 103.828 20.0861 103.348 19.6094C102.881 19.1195 102.302 18.8745 101.609 18.8745C100.929 18.8745 100.349 19.1195 99.8691 19.6094C99.4034 20.0993 99.1701 20.768 99.1701 21.6154C99.1701 22.4629 99.4034 23.1315 99.8691 23.6215C100.349 24.1113 100.929 24.3563 101.609 24.3563C102.289 24.3563 102.869 24.1113 103.348 23.6215C103.828 23.1183 104.068 22.443 104.068 21.5956Z" fill="#3A3B7B"/>
<path d="M113.279 27.3157C112.305 27.3157 111.439 27.1502 110.679 26.8192C109.92 26.4881 109.32 26.038 108.88 25.4686C108.441 24.8859 108.194 24.2372 108.14 23.5221H111.519C111.559 23.9061 111.739 24.2173 112.059 24.4556C112.379 24.694 112.772 24.8131 113.239 24.8131C113.665 24.8131 113.991 24.7337 114.218 24.5748C114.458 24.4027 114.578 24.1842 114.578 23.9194C114.578 23.6016 114.411 23.3698 114.078 23.2242C113.745 23.0653 113.205 22.8932 112.458 22.7078C111.659 22.5224 110.993 22.3304 110.459 22.1318C109.927 21.92 109.467 21.5956 109.08 21.1586C108.693 20.7084 108.501 20.1059 108.501 19.3512C108.501 18.7156 108.674 18.1396 109.02 17.6232C109.38 17.0936 109.9 16.6764 110.579 16.3719C111.272 16.0674 112.092 15.9151 113.038 15.9151C114.437 15.9151 115.537 16.2594 116.337 16.9479C117.15 17.6365 117.617 18.5501 117.737 19.6888H114.578C114.525 19.3049 114.351 19.0003 114.058 18.7751C113.778 18.5501 113.405 18.4375 112.939 18.4375C112.539 18.4375 112.232 18.517 112.019 18.6759C111.806 18.8215 111.699 19.0268 111.699 19.2916C111.699 19.6094 111.866 19.8477 112.199 20.0066C112.546 20.1655 113.078 20.3244 113.798 20.4832C114.624 20.6951 115.297 20.907 115.817 21.1189C116.337 21.3175 116.79 21.6485 117.176 22.112C117.576 22.5622 117.783 23.1712 117.797 23.9393C117.797 24.5881 117.61 25.1707 117.236 25.6871C116.877 26.1903 116.351 26.5875 115.657 26.8788C114.978 27.1701 114.185 27.3157 113.279 27.3157Z" fill="#3A3B7B"/>
<path d="M130.304 16.0739V27.1568H126.885V25.6473C126.539 26.1372 126.065 26.5344 125.466 26.839C124.879 27.1303 124.227 27.2759 123.506 27.2759C122.653 27.2759 121.9 27.0906 121.248 26.7198C120.594 26.3358 120.088 25.7863 119.728 25.0713C119.368 24.3563 119.188 23.5155 119.188 22.5488V16.0739H122.587V22.092C122.587 22.8335 122.78 23.4095 123.166 23.82C123.553 24.2304 124.073 24.4357 124.726 24.4357C125.392 24.4357 125.919 24.2304 126.305 23.82C126.692 23.4095 126.885 22.8335 126.885 22.092V16.0739H130.304Z" fill="#3A3B7B"/>
<path d="M146.394 15.9547C147.78 15.9547 148.879 16.3718 149.693 17.206C150.519 18.0402 150.932 19.1987 150.932 20.6818V27.1567H147.534V21.1387C147.534 20.4236 147.34 19.8741 146.954 19.4901C146.58 19.0928 146.061 18.8942 145.394 18.8942C144.728 18.8942 144.201 19.0928 143.815 19.4901C143.442 19.8741 143.255 20.4236 143.255 21.1387V27.1567H139.856V21.1387C139.856 20.4236 139.663 19.8741 139.277 19.4901C138.903 19.0928 138.383 18.8942 137.717 18.8942C137.051 18.8942 136.524 19.0928 136.138 19.4901C135.764 19.8741 135.579 20.4236 135.579 21.1387V27.1567H132.16V16.0739H135.579V17.4642C135.925 17.0008 136.378 16.6366 136.938 16.3718C137.497 16.0937 138.131 15.9547 138.836 15.9547C139.677 15.9547 140.423 16.1334 141.076 16.491C141.742 16.8485 142.262 17.3583 142.636 18.0203C143.022 17.4112 143.549 16.9147 144.215 16.5307C144.881 16.1467 145.608 15.9547 146.394 15.9547Z" fill="#3A3B7B"/>
</g>
<defs>
<linearGradient id="paint0_linear_1_139948" x1="32.6673" y1="13.7303" x2="3.09597" y2="13.7303" gradientUnits="userSpaceOnUse">
<stop stop-color="#64C2DB"/>
<stop offset="0.510417" stop-color="#7476ED"/>
<stop offset="1" stop-color="#E56F8C"/>
</linearGradient>
<clipPath id="clip0_1_139948">
<rect width="150.068" height="40" fill="white" transform="translate(0.863953)"/>
</clipPath>
</defs>
</svg>
