<svg width="151" height="40" viewBox="0 0 151 40" fill="none" xmlns="http://www.w3.org/2000/svg">
<g clip-path="url(#clip0_1_139976)">
<path d="M23.5482 26.3636H31.1797L12.2748 7.27271H4.64325L23.5482 26.3636Z" fill="#7476ED"/>
<path d="M15.6238 7.27271L34.8399 25.4545V7.27271H29.6397V13.013L23.5728 7.27271L15.6238 7.27271Z" fill="#E56F8C"/>
<path d="M0.983032 8.18182V26.3636H5.92257V20.6383L11.6853 26.3636H19.284L0.983032 8.18182Z" fill="#64C2DB"/>
<path d="M46.6405 23.6286H51.3108V26.3636H43.0753V11.8182H46.6405V23.6286Z" fill="#3A3B7B"/>
<path d="M57.2176 26.3637C56.0963 26.3637 55.0845 26.1235 54.1821 25.643C53.2933 25.1626 52.5892 24.4763 52.0695 23.5841C51.5637 22.6919 51.3107 21.6487 51.3107 20.4545C51.3107 19.2742 51.5704 18.2378 52.0901 17.3456C52.6097 16.4396 53.3207 15.7465 54.2231 15.2661C55.1256 14.7857 56.1373 14.5455 57.2585 14.5455C58.3798 14.5455 59.3915 14.7857 60.294 15.2661C61.1964 15.7465 61.9074 16.4396 62.427 17.3456C62.9466 18.2378 63.2064 19.2742 63.2064 20.4545C63.2064 21.635 62.9398 22.6781 62.4065 23.5841C61.887 24.4763 61.169 25.1626 60.2529 25.643C59.3505 26.1235 58.3387 26.3637 57.2176 26.3637ZM57.2176 23.3164C57.8875 23.3164 58.455 23.0694 58.9198 22.5752C59.3984 22.0811 59.6377 21.3742 59.6377 20.4545C59.6377 19.5349 59.4052 18.828 58.9404 18.3339C58.4891 17.8398 57.9285 17.5927 57.2585 17.5927C56.5749 17.5927 56.0074 17.8398 55.5563 18.3339C55.105 18.8143 54.8794 19.5212 54.8794 20.4545C54.8794 21.3742 55.0982 22.0811 55.5357 22.5752C55.987 23.0694 56.5476 23.3164 57.2176 23.3164Z" fill="#3A3B7B"/>
<path d="M68.1746 14.5455C68.969 14.5455 69.6625 14.7098 70.2549 15.0384C70.8608 15.367 71.3253 15.7983 71.6484 16.3323V14.7098H75.102V26.1496C75.102 27.2039 74.8933 28.1555 74.4759 29.0044C74.072 29.867 73.4459 30.5516 72.5976 31.0582C71.7629 31.5649 70.7194 31.8182 69.4672 31.8182C67.7976 31.8182 66.4445 31.4142 65.4078 30.6064C64.371 29.8122 63.7786 28.7306 63.6305 27.3614H67.0437C67.1514 27.7995 67.4072 28.1418 67.8111 28.3882C68.2151 28.6484 68.7132 28.7785 69.3057 28.7785C70.0193 28.7785 70.5847 28.5663 71.0022 28.1418C71.433 27.731 71.6484 27.067 71.6484 26.1496V24.5271C71.3118 25.061 70.8473 25.4992 70.2549 25.8416C69.6625 26.1701 68.969 26.3345 68.1746 26.3345C67.2457 26.3345 66.4041 26.0949 65.6501 25.6156C64.8961 25.1226 64.297 24.4313 63.8527 23.5412C63.4218 22.6376 63.2064 21.597 63.2064 20.4194C63.2064 19.2419 63.4218 18.2082 63.8527 17.3181C64.297 16.4282 64.8961 15.7435 65.6501 15.2643C66.4041 14.7851 67.2457 14.5455 68.1746 14.5455ZM71.6484 20.4399C71.6484 19.5637 71.4061 18.8722 70.9214 18.3656C70.4501 17.8589 69.8711 17.6056 69.1845 17.6056C68.4978 17.6056 67.9122 17.8589 67.4274 18.3656C66.9561 18.8585 66.7205 19.5431 66.7205 20.4194C66.7205 21.2958 66.9561 21.994 67.4274 22.5144C67.9122 23.021 68.4978 23.2742 69.1845 23.2742C69.8711 23.2742 70.4501 23.021 70.9214 22.5144C71.4061 22.0077 71.6484 21.3162 71.6484 20.4399Z" fill="#3A3B7B"/>
<path d="M82.3845 26.3637C81.3496 26.3637 80.4156 26.1235 79.5826 25.643C78.7622 25.1626 78.1122 24.4763 77.6326 23.5841C77.1656 22.6919 76.9321 21.6487 76.9321 20.4545C76.9321 19.2742 77.172 18.2378 77.6515 17.3456C78.1312 16.4396 78.7874 15.7465 79.6205 15.2661C80.4535 14.7857 81.3875 14.5455 82.4224 14.5455C83.4573 14.5455 84.3914 14.7857 85.2243 15.2661C86.0573 15.7465 86.7137 16.4396 87.1932 17.3456C87.6729 18.2378 87.9127 19.2742 87.9127 20.4545C87.9127 21.635 87.6666 22.6781 87.1744 23.5841C86.6947 24.4763 86.0321 25.1626 85.1865 25.643C84.3534 26.1235 83.4195 26.3637 82.3845 26.3637ZM82.3845 23.3164C83.003 23.3164 83.5268 23.0694 83.9559 22.5752C84.3977 22.0811 84.6185 21.3742 84.6185 20.4545C84.6185 19.5349 84.404 18.828 83.9748 18.3339C83.5583 17.8398 83.0409 17.5927 82.4224 17.5927C81.7914 17.5927 81.2676 17.8398 80.851 18.3339C80.4345 18.8143 80.2263 19.5212 80.2263 20.4545C80.2263 21.3742 80.4283 22.0811 80.8321 22.5752C81.2486 23.0694 81.7661 23.3164 82.3845 23.3164Z" fill="#3A3B7B"/>
<path d="M91.1267 13.7794C90.4505 13.7794 89.8946 13.6023 89.4588 13.2482C89.0381 12.8805 88.8278 12.4311 88.8278 11.8999C88.8278 11.3551 89.0381 10.9057 89.4588 10.5516C89.8946 10.1839 90.4505 10 91.1267 10C91.7878 10 92.3287 10.1839 92.7494 10.5516C93.1851 10.9057 93.403 11.3551 93.403 11.8999C93.403 12.4311 93.1851 12.8805 92.7494 13.2482C92.3287 13.6023 91.7878 13.7794 91.1267 13.7794ZM93.0424 14.9643V26.3636H89.1883V14.9643H93.0424Z" fill="#3A3B7B"/>
<path d="M98.4207 16.3516C98.7319 15.8119 99.1604 15.3759 99.7071 15.0437C100.254 14.7116 100.894 14.5455 101.628 14.5455C102.485 14.5455 103.262 14.7877 103.958 15.2721C104.654 15.7565 105.201 16.4486 105.598 17.3481C106.009 18.2478 106.214 19.2927 106.214 20.483C106.214 21.6733 106.009 22.7251 105.598 23.6385C105.201 24.5382 104.654 25.2371 103.958 25.7353C103.262 26.2198 102.485 26.462 101.628 26.462C100.907 26.462 100.266 26.2958 99.7071 25.9637C99.1604 25.6315 98.7319 25.2025 98.4207 24.6765V31.8182H95.233V14.7116H98.4207V16.3516ZM102.97 20.483C102.97 19.5972 102.746 18.9052 102.299 18.4069C101.864 17.8948 101.323 17.6387 100.677 17.6387C100.043 17.6387 99.5023 17.8948 99.0549 18.4069C98.6201 18.919 98.4027 19.618 98.4027 20.5037C98.4027 21.3895 98.6201 22.0884 99.0549 22.6006C99.5023 23.1127 100.043 23.3686 100.677 23.3686C101.311 23.3686 101.851 23.1127 102.299 22.6006C102.746 22.0746 102.97 21.3688 102.97 20.483Z" fill="#3A3B7B"/>
<path d="M112.484 26.3637C111.47 26.3637 110.567 26.1921 109.776 25.8489C108.983 25.5058 108.358 25.039 107.9 24.4489C107.441 23.8449 107.184 23.1723 107.129 22.4311H110.651C110.692 22.8292 110.88 23.1517 111.214 23.3988C111.546 23.6459 111.957 23.7694 112.443 23.7694C112.887 23.7694 113.227 23.687 113.464 23.5224C113.714 23.3439 113.839 23.1174 113.839 22.8429C113.839 22.5135 113.665 22.2733 113.318 22.1222C112.97 21.9575 112.407 21.7791 111.63 21.5869C110.796 21.3948 110.101 21.1957 109.546 20.9899C108.99 20.7702 108.511 20.434 108.108 19.981C107.705 19.5143 107.504 18.8898 107.504 18.1073C107.504 17.4485 107.684 16.8515 108.045 16.3161C108.42 15.7671 108.963 15.3347 109.671 15.019C110.394 14.7033 111.248 14.5455 112.234 14.5455C113.693 14.5455 114.84 14.9023 115.673 15.6161C116.521 16.3298 117.007 17.277 117.132 18.4574H113.839C113.783 18.0593 113.602 17.7436 113.297 17.5103C113.005 17.277 112.616 17.1603 112.13 17.1603C111.714 17.1603 111.394 17.2426 111.171 17.4074C110.949 17.5583 110.838 17.7711 110.838 18.0456C110.838 18.375 111.012 18.6221 111.359 18.7868C111.72 18.9516 112.276 19.1162 113.027 19.2809C113.888 19.5006 114.59 19.7202 115.131 19.9398C115.673 20.1457 116.145 20.4889 116.548 20.9693C116.965 21.436 117.18 22.0673 117.194 22.8634C117.194 23.5361 117 24.14 116.61 24.6753C116.235 25.1969 115.687 25.6087 114.965 25.9107C114.256 26.2126 113.429 26.3637 112.484 26.3637Z" fill="#3A3B7B"/>
<path d="M129.09 15.4545V26.2476H125.713V24.7776C125.37 25.2547 124.903 25.6416 124.311 25.9381C123.731 26.2218 123.086 26.3636 122.375 26.3636C121.532 26.3636 120.788 26.1832 120.143 25.8221C119.498 25.4481 118.998 24.9129 118.643 24.2166C118.287 23.5203 118.109 22.7015 118.109 21.7602V15.4545H121.467V21.3152C121.467 22.0374 121.658 22.5983 122.039 22.998C122.421 23.3979 122.934 23.5977 123.579 23.5977C124.238 23.5977 124.758 23.3979 125.14 22.998C125.522 22.5983 125.713 22.0374 125.713 21.3152V15.4545H129.09Z" fill="#3A3B7B"/>
<path d="M145.49 15.4545C146.909 15.4545 148.035 15.8607 148.867 16.6731C149.713 17.4854 150.136 18.6138 150.136 20.058V26.3636H146.656V20.5029C146.656 19.8065 146.459 19.2715 146.063 18.8975C145.681 18.5107 145.149 18.3172 144.467 18.3172C143.785 18.3172 143.246 18.5107 142.85 18.8975C142.469 19.2715 142.278 19.8065 142.278 20.5029V26.3636H138.798V20.5029C138.798 19.8065 138.601 19.2715 138.205 18.8975C137.823 18.5107 137.291 18.3172 136.609 18.3172C135.926 18.3172 135.388 18.5107 134.992 18.8975C134.61 19.2715 134.419 19.8065 134.419 20.5029V26.3636H130.92V15.5706H134.419V16.9245C134.774 16.4732 135.237 16.1186 135.811 15.8607C136.384 15.5899 137.031 15.4545 137.754 15.4545C138.614 15.4545 139.378 15.6286 140.047 15.9768C140.729 16.3249 141.261 16.8214 141.643 17.4662C142.039 16.873 142.578 16.3894 143.26 16.0155C143.942 15.6415 144.686 15.4545 145.49 15.4545Z" fill="#3A3B7B"/>
</g>
<defs>
<clipPath id="clip0_1_139976">
<rect width="150.068" height="40" fill="white" transform="translate(0.0679932)"/>
</clipPath>
</defs>
</svg>
