<svg width="151" height="40" viewBox="0 0 151 40" fill="none" xmlns="http://www.w3.org/2000/svg">
<path d="M27.7683 0L0 23.1397H18.7497L11.2479 39.9763L39.2615 16.9908H19.7333L27.7683 0Z" fill="#3182CE"/>
<path d="M27.7682 0L15.2253 18.6819L33.8623 18.6819L11.2478 39.9763L39.2614 16.9908L19.7332 16.9908L27.7682 0Z" fill="#2B6CB0"/>
<path d="M27.7683 0L0 23.1397H18.7497L11.2479 39.9763L23.1642 21.4486H5.54405L27.7683 0Z" fill="#4299E1"/>
<path d="M106.037 28.3403C104.801 28.3403 103.667 28.2312 102.635 28.0131C101.602 27.7804 100.664 27.475 99.8206 27.0969C98.9916 26.7042 98.2354 26.2607 97.5519 25.7663L99.2534 22.7996C100.446 23.6431 101.646 24.2611 102.853 24.6538C104.06 25.0319 105.216 25.2209 106.321 25.2209C106.801 25.2209 107.303 25.1773 107.826 25.09C108.35 24.9882 108.786 24.821 109.135 24.5883C109.499 24.3411 109.68 24.0066 109.68 23.5849C109.68 23.3377 109.593 23.1341 109.419 22.9741C109.259 22.7996 109.033 22.6614 108.742 22.5596C108.451 22.4578 108.11 22.3779 107.717 22.3197C107.339 22.247 106.925 22.1961 106.474 22.167C106.037 22.1234 105.594 22.0797 105.143 22.0361C104.125 21.9343 103.202 21.7671 102.373 21.5344C101.544 21.3017 100.831 21.0036 100.235 20.64C99.6533 20.2619 99.2025 19.8038 98.8826 19.2658C98.5626 18.7277 98.4027 18.1097 98.4027 17.4116C98.4027 16.6263 98.5917 15.9283 98.9698 15.3175C99.3625 14.7067 99.9078 14.1977 100.606 13.7905C101.304 13.3688 102.104 13.0489 103.005 12.8307C103.922 12.6126 104.903 12.5035 105.95 12.5035C107.041 12.5035 108.022 12.6053 108.895 12.8089C109.782 12.998 110.56 13.2597 111.229 13.5942C111.913 13.9287 112.48 14.2923 112.931 14.6849L111.142 17.2589C110.691 16.9244 110.168 16.6409 109.571 16.4082C108.99 16.161 108.372 15.9719 107.717 15.841C107.077 15.7102 106.437 15.6447 105.797 15.6447C105.143 15.6447 104.554 15.7029 104.031 15.8192C103.522 15.921 103.114 16.081 102.809 16.2991C102.518 16.5027 102.373 16.7717 102.373 17.1062C102.373 17.4116 102.496 17.6661 102.744 17.8697C103.005 18.0588 103.34 18.2115 103.747 18.3278C104.154 18.4296 104.605 18.5096 105.099 18.5677C105.594 18.6259 106.074 18.6841 106.539 18.7423C107.412 18.8295 108.27 18.9458 109.113 19.0913C109.957 19.2222 110.713 19.4403 111.382 19.7457C112.065 20.0365 112.611 20.4583 113.018 21.0109C113.425 21.5489 113.629 22.2833 113.629 23.2141C113.629 24.2902 113.301 25.2136 112.647 25.9844C111.993 26.7406 111.091 27.3223 109.942 27.7295C108.808 28.1367 107.506 28.3403 106.037 28.3403Z" fill="#122743"/>
<path d="M138.186 28.2994V24.981H142.287V16.1246H138.186L138.114 12.9252H150.118V16.1246H145.996V24.981H150.118V28.2994H138.186Z" fill="#122743"/>
<path d="M44.8373 25.7932L44.8785 28.2994H60.2571L60.2159 24.9643H50.6146L59.976 15.4317V12.9252H46.3265V16.4352H54.0456L44.8373 25.7932Z" fill="#122743"/>
<path d="M63.3475 28.2994V12.9252H77.0465V16.0155H66.9467V18.8513H76.0649V21.8616H66.9467V25.0952H77.2646V28.2994H63.3475Z" fill="#122743"/>
<path d="M128.759 28.253C127.131 28.253 125.713 27.9331 124.506 27.2932C123.299 26.6533 122.361 25.7735 121.692 24.6538C121.023 23.534 120.688 22.167 120.688 20.7273V12.9252H124.44V20.7273C124.44 26.0002 133.187 26.0002 133.187 20.7273V12.9252H136.809V20.7273C136.809 22.167 136.474 23.534 135.805 24.6538C135.136 25.7735 134.198 26.6533 132.991 27.2932C131.784 27.9331 130.374 28.253 128.759 28.253Z" fill="#122743"/>
<path d="M79.9538 20.7273V12.9252H83.7057V20.7273C83.7057 26.1744 92.453 26.1744 92.453 20.7273V12.9252H96.0741V20.7273C96.0741 30.8844 79.9538 30.8164 79.9538 20.7273Z" fill="#122743"/>
</svg>
